<svg xmlns="http://www.w3.org/2000/svg" viewBox="0 0 1200 800" fill="none">
  <defs>
    <!-- Glow filter for gold nodes -->
    <filter id="glow" x="-50%" y="-50%" width="200%" height="200%">
      <feGaussianBlur stdDeviation="4" result="blur"/>
      <feMerge>
        <feMergeNode in="blur"/>
        <feMergeNode in="SourceGraphic"/>
      </feMerge>
    </filter>

    <!-- Subtle line glow -->
    <filter id="lineGlow" x="-20%" y="-20%" width="140%" height="140%">
      <feGaussianBlur stdDeviation="1.5" result="blur"/>
      <feMerge>
        <feMergeNode in="blur"/>
        <feMergeNode in="SourceGraphic"/>
      </feMerge>
    </filter>

    <!-- Arrow marker -->
    <marker id="arrow" markerWidth="8" markerHeight="6" refX="7" refY="3" orient="auto" markerUnits="strokeWidth">
      <path d="M0,0 L8,3 L0,6 L2,3 Z" fill="#D4A843" opacity="0.7"/>
    </marker>

    <!-- Reverse arrow marker -->
    <marker id="arrowRev" markerWidth="8" markerHeight="6" refX="1" refY="3" orient="auto-start-reverse" markerUnits="strokeWidth">
      <path d="M0,0 L8,3 L0,6 L2,3 Z" fill="#D4A843" opacity="0.7"/>
    </marker>

    <!-- Great Lakes subtle fill -->
    <radialGradient id="lakeGrad">
      <stop offset="0%" stop-color="#1a3a5c" stop-opacity="0.35"/>
      <stop offset="100%" stop-color="#0D1B2A" stop-opacity="0.1"/>
    </radialGradient>

    <!-- Grid pattern -->
    <pattern id="grid" width="60" height="60" patternUnits="userSpaceOnUse">
      <path d="M 60 0 L 0 0 0 60" fill="none" stroke="#1a2a40" stroke-width="0.3"/>
    </pattern>
  </defs>

  <!-- Background -->
  <rect width="1200" height="800" fill="#0D1B2A"/>

  <!-- Subtle grid -->
  <rect width="1200" height="800" fill="url(#grid)" opacity="0.5"/>

  <!-- ===== CANADA OUTLINE (simplified) ===== -->
  <path d="
    M 100,120 L 140,100 180,95 220,90 260,105 300,95 340,88 380,92
    L 420,85 460,80 500,78 540,82 580,75 620,78 660,82 700,80
    L 740,85 780,90 820,95 860,105 900,110 940,120 960,130
    L 970,145 975,160 980,175 970,190 955,200
    L 940,210 920,215 900,220 880,218 860,222 840,225
    L 820,220 800,225 780,230 760,228 740,232 720,228
    L 700,235 680,240 670,248 660,255 650,260
    L 640,258 620,262 600,258 580,265 560,270
    L 540,268 520,272 500,275 480,270 460,268
    L 440,272 420,275 400,278 380,282 360,278
    L 340,275 320,280 300,285 280,282 260,278
    L 240,282 220,285 200,290 180,285 160,278
    L 140,275 120,270 105,260 100,245 95,230 92,215
    L 90,200 88,180 90,160 95,140 100,120 Z
  " fill="#0f2035" stroke="#1a3a5c" stroke-width="0.8" opacity="0.9"/>

  <!-- ===== USA OUTLINE (simplified) ===== -->
  <path d="
    M 92,215 L 95,230 100,245 105,260 120,270 140,275 160,278 180,285
    L 200,290 220,285 240,282 260,278 280,282 300,285 320,280
    L 340,275 360,278 380,282 400,278 420,275 440,272 460,268
    L 480,270 500,275 520,272 540,268 560,270 580,265
    L 600,258 620,262 640,258 650,260 660,255 670,248 680,240
    L 700,235 720,228 740,232 760,228 780,230 800,225
    L 820,220 840,225 860,222 880,218 900,220 920,215
    L 940,210 955,200 970,190 980,205 985,225 990,250
    L 988,270 985,290 990,310 995,330 998,350
    L 995,370 988,390 980,400 970,408 960,415
    L 950,425 940,440 935,458 940,475 945,490
    L 935,498 920,505 910,515 900,520 890,530
    L 878,540 870,550 865,560 870,575 875,585
    L 870,595 860,600 845,605 830,600 818,595
    L 810,605 800,615 790,620 780,618 770,610
    L 760,615 752,625 748,638 755,648 760,658
    L 750,662 738,658 725,650 715,645 705,650
    L 698,660 695,670 700,680 695,688 685,690
    L 670,685 655,680 640,682 625,688 615,695
    L 600,690 580,685 560,688 540,692 520,690
    L 500,695 480,698 460,695 440,690 420,688
    L 400,692 385,698 370,695 355,690 340,688
    L 325,695 315,700 305,698 295,690 285,685
    L 270,690 255,695 240,698 225,695 210,690
    L 195,685 180,682 165,678 150,675 135,680
    L 120,685 108,690 100,695 95,700 90,705
    L 85,698 80,688 78,672 80,655 85,640
    L 82,620 80,600 78,580 80,560 85,540
    L 88,520 85,500 82,480 80,460 78,440
    L 80,420 82,400 85,380 88,360 85,340
    L 82,320 80,300 82,280 85,260 88,240
    L 90,225 92,215 Z
  " fill="#0f2035" stroke="#1a3a5c" stroke-width="0.8" opacity="0.9"/>

  <!-- ===== GREAT LAKES ===== -->
  <ellipse cx="510" cy="235" rx="65" ry="22" fill="url(#lakeGrad)" stroke="#1a3a5c" stroke-width="0.4"/>
  <ellipse cx="590" cy="310" rx="18" ry="50" fill="url(#lakeGrad)" stroke="#1a3a5c" stroke-width="0.4" transform="rotate(-8,590,310)"/>
  <ellipse cx="650" cy="260" rx="22" ry="40" fill="url(#lakeGrad)" stroke="#1a3a5c" stroke-width="0.4" transform="rotate(15,650,260)"/>
  <ellipse cx="720" cy="300" rx="42" ry="12" fill="url(#lakeGrad)" stroke="#1a3a5c" stroke-width="0.4" transform="rotate(-8,720,300)"/>
  <ellipse cx="790" cy="265" rx="28" ry="10" fill="url(#lakeGrad)" stroke="#1a3a5c" stroke-width="0.4"/>

  <!-- ═══════════════════════════════════════════════════════
       ROUTE ARROWS — Major N. American city connections
       Gold arrows matching SRL website color scheme (#D4A843)
       ═══════════════════════════════════════════════════════ -->

  <!-- ── East Coast Corridor ──────────────────────────── -->
  <!-- Boston → New York -->
  <line x1="920" y1="275" x2="900" y2="305" stroke="#D4A843" stroke-width="1.5" marker-end="url(#arrow)" opacity="0.55" filter="url(#lineGlow)">
    <animate attributeName="stroke-dashoffset" from="0" to="-20" dur="2s" repeatCount="indefinite"/>
  </line>
  <!-- New York → Philadelphia -->
  <line x1="895" y1="315" x2="870" y2="340" stroke="#D4A843" stroke-width="1.3" marker-end="url(#arrow)" opacity="0.45" filter="url(#lineGlow)">
    <animate attributeName="stroke-dashoffset" from="0" to="-20" dur="2.2s" repeatCount="indefinite"/>
  </line>
  <!-- Philadelphia → Atlanta -->
  <line x1="865" y1="345" x2="720" y2="495" stroke="#D4A843" stroke-width="1.2" stroke-dasharray="6,4" marker-end="url(#arrow)" opacity="0.4" filter="url(#lineGlow)">
    <animate attributeName="stroke-dashoffset" from="0" to="-20" dur="3.5s" repeatCount="indefinite"/>
  </line>
  <!-- Atlanta → Miami -->
  <line x1="720" y1="505" x2="780" y2="620" stroke="#D4A843" stroke-width="1.2" stroke-dasharray="6,4" marker-end="url(#arrow)" opacity="0.4" filter="url(#lineGlow)">
    <animate attributeName="stroke-dashoffset" from="0" to="-20" dur="3s" repeatCount="indefinite"/>
  </line>
  <!-- New York → Atlanta -->
  <line x1="895" y1="315" x2="725" y2="495" stroke="#D4A843" stroke-width="1" stroke-dasharray="5,5" marker-end="url(#arrow)" opacity="0.3" filter="url(#lineGlow)">
    <animate attributeName="stroke-dashoffset" from="0" to="-20" dur="4s" repeatCount="indefinite"/>
  </line>

  <!-- ── Midwest Network ─────────────────────────────── -->
  <!-- Chicago → Detroit -->
  <line x1="565" y1="345" x2="680" y2="310" stroke="#D4A843" stroke-width="1.5" marker-end="url(#arrow)" opacity="0.55" filter="url(#lineGlow)">
    <animate attributeName="stroke-dashoffset" from="0" to="-20" dur="2s" repeatCount="indefinite"/>
  </line>
  <!-- Chicago → Minneapolis -->
  <line x1="555" y1="340" x2="435" y2="285" stroke="#D4A843" stroke-width="1.3" stroke-dasharray="6,4" marker-end="url(#arrow)" opacity="0.45" filter="url(#lineGlow)">
    <animate attributeName="stroke-dashoffset" from="0" to="-20" dur="2.8s" repeatCount="indefinite"/>
  </line>
  <!-- Chicago → New York -->
  <line x1="570" y1="345" x2="890" y2="310" stroke="#D4A843" stroke-width="1.2" stroke-dasharray="5,5" marker-end="url(#arrow)" opacity="0.35" filter="url(#lineGlow)">
    <animate attributeName="stroke-dashoffset" from="0" to="-20" dur="4s" repeatCount="indefinite"/>
  </line>
  <!-- Detroit → New York -->
  <line x1="690" y1="310" x2="890" y2="310" stroke="#D4A843" stroke-width="1.2" stroke-dasharray="5,5" marker-end="url(#arrow)" opacity="0.35" filter="url(#lineGlow)">
    <animate attributeName="stroke-dashoffset" from="0" to="-20" dur="3s" repeatCount="indefinite"/>
  </line>
  <!-- Chicago → Atlanta -->
  <line x1="565" y1="350" x2="715" y2="495" stroke="#D4A843" stroke-width="1" stroke-dasharray="5,5" marker-end="url(#arrow)" opacity="0.3" filter="url(#lineGlow)">
    <animate attributeName="stroke-dashoffset" from="0" to="-20" dur="3.5s" repeatCount="indefinite"/>
  </line>

  <!-- ── South / Central ─────────────────────────────── -->
  <!-- Dallas → Houston -->
  <line x1="405" y1="555" x2="440" y2="600" stroke="#D4A843" stroke-width="1.3" marker-end="url(#arrow)" opacity="0.45" filter="url(#lineGlow)">
    <animate attributeName="stroke-dashoffset" from="0" to="-20" dur="1.8s" repeatCount="indefinite"/>
  </line>
  <!-- Dallas → Atlanta -->
  <line x1="410" y1="555" x2="715" y2="495" stroke="#D4A843" stroke-width="1.2" stroke-dasharray="6,4" marker-end="url(#arrow)" opacity="0.4" filter="url(#lineGlow)">
    <animate attributeName="stroke-dashoffset" from="0" to="-20" dur="3.2s" repeatCount="indefinite"/>
  </line>
  <!-- Houston → Miami -->
  <line x1="450" y1="605" x2="775" y2="620" stroke="#D4A843" stroke-width="1" stroke-dasharray="5,5" marker-end="url(#arrow)" opacity="0.3" filter="url(#lineGlow)">
    <animate attributeName="stroke-dashoffset" from="0" to="-20" dur="4s" repeatCount="indefinite"/>
  </line>
  <!-- Chicago → Dallas -->
  <line x1="560" y1="350" x2="405" y2="550" stroke="#D4A843" stroke-width="1" stroke-dasharray="5,5" marker-end="url(#arrow)" opacity="0.3" filter="url(#lineGlow)">
    <animate attributeName="stroke-dashoffset" from="0" to="-20" dur="3.8s" repeatCount="indefinite"/>
  </line>
  <!-- Atlanta → Houston -->
  <line x1="715" y1="500" x2="445" y2="600" stroke="#D4A843" stroke-width="1" stroke-dasharray="5,5" marker-end="url(#arrow)" opacity="0.3" filter="url(#lineGlow)">
    <animate attributeName="stroke-dashoffset" from="0" to="-20" dur="4.2s" repeatCount="indefinite"/>
  </line>

  <!-- ── West Coast ──────────────────────────────────── -->
  <!-- Los Angeles → San Francisco -->
  <line x1="155" y1="490" x2="135" y2="430" stroke="#D4A843" stroke-width="1.5" marker-end="url(#arrow)" opacity="0.5" filter="url(#lineGlow)">
    <animate attributeName="stroke-dashoffset" from="0" to="-20" dur="2s" repeatCount="indefinite"/>
  </line>
  <!-- San Francisco → Seattle -->
  <line x1="135" y1="425" x2="160" y2="230" stroke="#D4A843" stroke-width="1.3" stroke-dasharray="6,4" marker-end="url(#arrow)" opacity="0.45" filter="url(#lineGlow)">
    <animate attributeName="stroke-dashoffset" from="0" to="-20" dur="3s" repeatCount="indefinite"/>
  </line>
  <!-- Los Angeles → Phoenix -->
  <line x1="160" y1="495" x2="210" y2="520" stroke="#D4A843" stroke-width="1.3" marker-end="url(#arrow)" opacity="0.45" filter="url(#lineGlow)">
    <animate attributeName="stroke-dashoffset" from="0" to="-20" dur="1.5s" repeatCount="indefinite"/>
  </line>
  <!-- Los Angeles → Dallas -->
  <line x1="165" y1="495" x2="395" y2="555" stroke="#D4A843" stroke-width="1" stroke-dasharray="5,5" marker-end="url(#arrow)" opacity="0.3" filter="url(#lineGlow)">
    <animate attributeName="stroke-dashoffset" from="0" to="-20" dur="4s" repeatCount="indefinite"/>
  </line>
  <!-- Phoenix → Dallas -->
  <line x1="220" y1="520" x2="395" y2="555" stroke="#D4A843" stroke-width="1" stroke-dasharray="5,5" marker-end="url(#arrow)" opacity="0.3" filter="url(#lineGlow)">
    <animate attributeName="stroke-dashoffset" from="0" to="-20" dur="3s" repeatCount="indefinite"/>
  </line>

  <!-- ── Mountain / Central ──────────────────────────── -->
  <!-- Denver → Minneapolis -->
  <line x1="315" y1="395" x2="430" y2="285" stroke="#D4A843" stroke-width="1.2" stroke-dasharray="6,4" marker-end="url(#arrow)" opacity="0.4" filter="url(#lineGlow)">
    <animate attributeName="stroke-dashoffset" from="0" to="-20" dur="3s" repeatCount="indefinite"/>
  </line>
  <!-- Denver → Dallas -->
  <line x1="315" y1="400" x2="400" y2="550" stroke="#D4A843" stroke-width="1" stroke-dasharray="5,5" marker-end="url(#arrow)" opacity="0.3" filter="url(#lineGlow)">
    <animate attributeName="stroke-dashoffset" from="0" to="-20" dur="3.2s" repeatCount="indefinite"/>
  </line>
  <!-- Denver → Los Angeles -->
  <line x1="310" y1="395" x2="160" y2="490" stroke="#D4A843" stroke-width="1" stroke-dasharray="5,5" marker-end="url(#arrow)" opacity="0.3" filter="url(#lineGlow)">
    <animate attributeName="stroke-dashoffset" from="0" to="-20" dur="3.5s" repeatCount="indefinite"/>
  </line>
  <!-- Seattle → Denver -->
  <line x1="165" y1="230" x2="310" y2="390" stroke="#D4A843" stroke-width="1" stroke-dasharray="5,5" marker-end="url(#arrow)" opacity="0.3" filter="url(#lineGlow)">
    <animate attributeName="stroke-dashoffset" from="0" to="-20" dur="3.8s" repeatCount="indefinite"/>
  </line>
  <!-- Minneapolis → Chicago -->
  <line x1="440" y1="285" x2="555" y2="340" stroke="#D4A843" stroke-width="1.3" stroke-dasharray="6,4" marker-end="url(#arrow)" opacity="0.45" filter="url(#lineGlow)">
    <animate attributeName="stroke-dashoffset" from="0" to="-20" dur="2.5s" repeatCount="indefinite"/>
  </line>

  <!-- ── Cross-Border Canada ─────────────────────────── -->
  <!-- Detroit → Toronto -->
  <line x1="690" y1="305" x2="755" y2="252" stroke="#D4A843" stroke-width="1.5" marker-end="url(#arrow)" opacity="0.5" filter="url(#lineGlow)">
    <animate attributeName="stroke-dashoffset" from="0" to="-20" dur="2.2s" repeatCount="indefinite"/>
  </line>
  <!-- Toronto → Montreal -->
  <line x1="765" y1="248" x2="865" y2="218" stroke="#D4A843" stroke-width="1.3" stroke-dasharray="6,4" marker-end="url(#arrow)" opacity="0.45" filter="url(#lineGlow)">
    <animate attributeName="stroke-dashoffset" from="0" to="-20" dur="2.5s" repeatCount="indefinite"/>
  </line>
  <!-- Montreal → Boston -->
  <line x1="870" y1="218" x2="918" y2="272" stroke="#D4A843" stroke-width="1.2" stroke-dasharray="5,5" marker-end="url(#arrow)" opacity="0.4" filter="url(#lineGlow)">
    <animate attributeName="stroke-dashoffset" from="0" to="-20" dur="2.8s" repeatCount="indefinite"/>
  </line>
  <!-- New York → Toronto -->
  <line x1="895" y1="308" x2="765" y2="252" stroke="#D4A843" stroke-width="1" stroke-dasharray="5,5" marker-end="url(#arrow)" opacity="0.3" filter="url(#lineGlow)">
    <animate attributeName="stroke-dashoffset" from="0" to="-20" dur="3s" repeatCount="indefinite"/>
  </line>
  <!-- Seattle → Vancouver -->
  <line x1="165" y1="225" x2="155" y2="180" stroke="#D4A843" stroke-width="1.3" marker-end="url(#arrow)" opacity="0.5" filter="url(#lineGlow)">
    <animate attributeName="stroke-dashoffset" from="0" to="-20" dur="1.8s" repeatCount="indefinite"/>
  </line>
  <!-- Vancouver → Calgary -->
  <line x1="160" y1="175" x2="220" y2="148" stroke="#D4A843" stroke-width="1.2" stroke-dasharray="5,5" marker-end="url(#arrow)" opacity="0.4" filter="url(#lineGlow)">
    <animate attributeName="stroke-dashoffset" from="0" to="-20" dur="2.2s" repeatCount="indefinite"/>
  </line>
  <!-- Chicago → Toronto -->
  <line x1="565" y1="340" x2="755" y2="252" stroke="#D4A843" stroke-width="1" stroke-dasharray="5,5" marker-end="url(#arrow)" opacity="0.3" filter="url(#lineGlow)">
    <animate attributeName="stroke-dashoffset" from="0" to="-20" dur="3.5s" repeatCount="indefinite"/>
  </line>

  <!-- ═══════════════════════════════════════════════════════
       CITY DOTS — Major North American cities
       ═══════════════════════════════════════════════════════ -->

  <!-- ── US Major Cities ─────────────────────────────── -->

  <!-- New York -->
  <circle cx="895" cy="310" r="5" fill="#D4A843" filter="url(#glow)" opacity="0.95">
    <animate attributeName="opacity" values="0.8;1;0.8" dur="3s" repeatCount="indefinite"/>
  </circle>
  <text x="908" y="306" text-anchor="start" fill="#D4A843" font-family="Arial,sans-serif" font-size="9" font-weight="bold" opacity="0.85">NEW YORK</text>

  <!-- Los Angeles -->
  <circle cx="155" cy="495" r="5" fill="#D4A843" filter="url(#glow)" opacity="0.95">
    <animate attributeName="opacity" values="0.8;1;0.8" dur="3.2s" repeatCount="indefinite"/>
  </circle>
  <text x="110" y="510" text-anchor="middle" fill="#D4A843" font-family="Arial,sans-serif" font-size="9" font-weight="bold" opacity="0.85">LOS ANGELES</text>

  <!-- Chicago -->
  <circle cx="560" cy="345" r="5" fill="#D4A843" filter="url(#glow)" opacity="0.95">
    <animate attributeName="opacity" values="0.8;1;0.8" dur="2.8s" repeatCount="indefinite"/>
  </circle>
  <text x="540" y="360" text-anchor="end" fill="#D4A843" font-family="Arial,sans-serif" font-size="9" font-weight="bold" opacity="0.85">CHICAGO</text>

  <!-- Houston -->
  <circle cx="445" cy="605" r="4.5" fill="#D4A843" filter="url(#glow)" opacity="0.9">
    <animate attributeName="opacity" values="0.75;1;0.75" dur="3.1s" repeatCount="indefinite"/>
  </circle>
  <text x="445" y="622" text-anchor="middle" fill="#D4A843" font-family="Arial,sans-serif" font-size="8.5" font-weight="bold" opacity="0.8">HOUSTON</text>

  <!-- Dallas -->
  <circle cx="400" cy="555" r="4.5" fill="#D4A843" filter="url(#glow)" opacity="0.9">
    <animate attributeName="opacity" values="0.75;1;0.75" dur="3.3s" repeatCount="indefinite"/>
  </circle>
  <text x="400" y="548" text-anchor="middle" fill="#D4A843" font-family="Arial,sans-serif" font-size="8.5" font-weight="bold" opacity="0.8">DALLAS</text>

  <!-- Atlanta -->
  <circle cx="720" cy="500" r="4.5" fill="#D4A843" filter="url(#glow)" opacity="0.9">
    <animate attributeName="opacity" values="0.75;1;0.75" dur="2.9s" repeatCount="indefinite"/>
  </circle>
  <text x="720" y="517" text-anchor="middle" fill="#D4A843" font-family="Arial,sans-serif" font-size="8.5" font-weight="bold" opacity="0.8">ATLANTA</text>

  <!-- Miami -->
  <circle cx="780" cy="625" r="4" fill="#D4A843" filter="url(#glow)" opacity="0.9">
    <animate attributeName="opacity" values="0.75;1;0.75" dur="3.4s" repeatCount="indefinite"/>
  </circle>
  <text x="795" y="630" text-anchor="start" fill="#D4A843" font-family="Arial,sans-serif" font-size="8.5" font-weight="bold" opacity="0.8">MIAMI</text>

  <!-- Seattle -->
  <circle cx="165" cy="225" r="4.5" fill="#D4A843" filter="url(#glow)" opacity="0.9">
    <animate attributeName="opacity" values="0.75;1;0.75" dur="3s" repeatCount="indefinite"/>
  </circle>
  <text x="165" y="218" text-anchor="middle" fill="#D4A843" font-family="Arial,sans-serif" font-size="8.5" font-weight="bold" opacity="0.8">SEATTLE</text>

  <!-- San Francisco -->
  <circle cx="130" cy="428" r="4" fill="#D4A843" filter="url(#glow)" opacity="0.9">
    <animate attributeName="opacity" values="0.75;1;0.75" dur="3.2s" repeatCount="indefinite"/>
  </circle>
  <text x="85" y="432" text-anchor="end" fill="#D4A843" font-family="Arial,sans-serif" font-size="8" opacity="0.75">SAN FRANCISCO</text>

  <!-- Denver -->
  <circle cx="310" cy="395" r="4" fill="#D4A843" filter="url(#glow)" opacity="0.9">
    <animate attributeName="opacity" values="0.75;1;0.75" dur="3.5s" repeatCount="indefinite"/>
  </circle>
  <text x="310" y="412" text-anchor="middle" fill="#D4A843" font-family="Arial,sans-serif" font-size="8.5" font-weight="bold" opacity="0.8">DENVER</text>

  <!-- Phoenix -->
  <circle cx="215" cy="525" r="3.5" fill="#D4A843" filter="url(#glow)" opacity="0.85">
    <animate attributeName="opacity" values="0.7;1;0.7" dur="3.6s" repeatCount="indefinite"/>
  </circle>
  <text x="215" y="542" text-anchor="middle" fill="#D4A843" font-family="Arial,sans-serif" font-size="8" opacity="0.7">PHOENIX</text>

  <!-- Minneapolis -->
  <circle cx="430" cy="280" r="4" fill="#D4A843" filter="url(#glow)" opacity="0.9">
    <animate attributeName="opacity" values="0.75;1;0.75" dur="2.7s" repeatCount="indefinite"/>
  </circle>
  <text x="430" y="273" text-anchor="middle" fill="#D4A843" font-family="Arial,sans-serif" font-size="8.5" font-weight="bold" opacity="0.8">MINNEAPOLIS</text>

  <!-- Detroit -->
  <circle cx="685" cy="310" r="4.5" fill="#D4A843" filter="url(#glow)" opacity="0.9">
    <animate attributeName="opacity" values="0.75;1;0.75" dur="2.6s" repeatCount="indefinite"/>
  </circle>
  <text x="700" y="305" text-anchor="start" fill="#D4A843" font-family="Arial,sans-serif" font-size="8.5" font-weight="bold" opacity="0.8">DETROIT</text>

  <!-- Boston -->
  <circle cx="920" cy="275" r="4" fill="#D4A843" filter="url(#glow)" opacity="0.9">
    <animate attributeName="opacity" values="0.75;1;0.75" dur="3s" repeatCount="indefinite"/>
  </circle>
  <text x="936" y="272" text-anchor="start" fill="#D4A843" font-family="Arial,sans-serif" font-size="8.5" font-weight="bold" opacity="0.8">BOSTON</text>

  <!-- Philadelphia -->
  <circle cx="865" cy="340" r="3.5" fill="#D4A843" filter="url(#glow)" opacity="0.85">
    <animate attributeName="opacity" values="0.7;1;0.7" dur="3.1s" repeatCount="indefinite"/>
  </circle>
  <text x="878" y="347" text-anchor="start" fill="#D4A843" font-family="Arial,sans-serif" font-size="8" opacity="0.75">PHILADELPHIA</text>

  <!-- ── Canadian Cities ─────────────────────────────── -->

  <!-- Toronto -->
  <circle cx="760" cy="248" r="4.5" fill="#D4A843" filter="url(#glow)" opacity="0.9">
    <animate attributeName="opacity" values="0.75;1;0.75" dur="2.8s" repeatCount="indefinite"/>
  </circle>
  <text x="775" y="244" text-anchor="start" fill="#D4A843" font-family="Arial,sans-serif" font-size="8.5" font-weight="bold" opacity="0.8">TORONTO</text>

  <!-- Montreal -->
  <circle cx="870" cy="215" r="4" fill="#D4A843" filter="url(#glow)" opacity="0.9">
    <animate attributeName="opacity" values="0.75;1;0.75" dur="3s" repeatCount="indefinite"/>
  </circle>
  <text x="886" y="212" text-anchor="start" fill="#D4A843" font-family="Arial,sans-serif" font-size="8.5" font-weight="bold" opacity="0.8">MONTREAL</text>

  <!-- Vancouver -->
  <circle cx="155" cy="175" r="4" fill="#D4A843" filter="url(#glow)" opacity="0.9">
    <animate attributeName="opacity" values="0.75;1;0.75" dur="3.2s" repeatCount="indefinite"/>
  </circle>
  <text x="155" y="168" text-anchor="middle" fill="#D4A843" font-family="Arial,sans-serif" font-size="8.5" font-weight="bold" opacity="0.8">VANCOUVER</text>

  <!-- Calgary -->
  <circle cx="220" cy="145" r="3.5" fill="#D4A843" filter="url(#glow)" opacity="0.85">
    <animate attributeName="opacity" values="0.7;1;0.7" dur="3.4s" repeatCount="indefinite"/>
  </circle>
  <text x="220" y="138" text-anchor="middle" fill="#D4A843" font-family="Arial,sans-serif" font-size="8" opacity="0.75">CALGARY</text>
</svg>