<svg xmlns="http://www.w3.org/2000/svg" viewBox="0 0 1200 700" fill="none">
  <defs>
    <filter id="glow" x="-50%" y="-50%" width="200%" height="200%">
      <feGaussianBlur stdDeviation="3" result="b"/><feMerge><feMergeNode in="b"/><feMergeNode in="SourceGraphic"/></feMerge>
    </filter>
    <filter id="lineGlow" x="-20%" y="-20%" width="140%" height="140%">
      <feGaussianBlur stdDeviation="1.5" result="b"/><feMerge><feMergeNode in="b"/><feMergeNode in="SourceGraphic"/></feMerge>
    </filter>
    <pattern id="grid" width="60" height="60" patternUnits="userSpaceOnUse">
      <path d="M 60 0 L 0 0 0 60" fill="none" stroke="#0d1f35" stroke-width="0.2"/>
    </pattern>
  </defs>

  <!-- Background -->
  <rect width="1200" height="700" fill="#0a1628"/>
  <rect width="1200" height="700" fill="url(#grid)" opacity="0.3"/>

  <!-- CANADA outline -->
  <path d="
    M 50,40 L 1150,40 L 1150,120 L 1130,160 L 1118,194
    L 1100,200 L 1060,226 L 1040,240 L 1005,244 L 981,248
    L 964,256 L 952,272 L 935,278 L 913,282 L 895,290
    L 870,300 L 848,304 L 835,294 L 828,280 L 820,268
    L 810,255 L 795,248 L 780,238 L 778,228 L 775,218
    L 768,210 L 750,204 L 730,202 L 710,198 L 692,200
    L 672,188 L 656,172 L 642,160
    L 590,160 L 490,160 L 390,160 L 287,160 L 220,160
    L 155,160 L 140,164 L 130,155 L 118,130 L 100,100
    L 80,70 L 50,40 Z
  " fill="#0d1a2e" stroke="#1a3050" stroke-width="0.8"/>

  <!-- USA outline -->
  <path d="
    M 140,172
    L 143,200 L 144,230 L 143,252 L 144,275 L 145,300
    C 148,320 155,345 165,365
    C 172,378 178,386 185,398
    C 192,415 210,440 235,458
    C 248,466 262,480 270,490
    L 309,490 L 370,514 L 405,514 L 447,504
    C 470,522 490,540 501,550
    C 525,570 555,588 568,595
    L 600,620
    C 602,608 602,592 601,584
    C 615,568 636,558 648,554
    C 668,548 688,546 700,550
    C 718,556 732,558 738,555
    L 744,540 L 760,536 L 775,534 L 790,536
    C 812,540 830,544 842,552
    C 848,560 853,575 856,588
    C 862,608 872,628 879,636
    L 886,634
    C 893,624 896,610 896,594
    C 894,575 890,555 885,540
    L 878,530 L 878,515
    C 882,498 892,484 902,474
    C 916,460 932,450 948,440
    L 960,430
    C 968,418 966,405 964,395
    C 962,380 960,370 964,362
    C 972,352 984,342 997,334
    L 1010,324 L 1028,316
    C 1042,312 1055,308 1065,306
    C 1068,304 1066,300 1060,296
    C 1055,290 1052,284 1054,278
    C 1062,264 1078,250 1092,240
    C 1104,232 1114,222 1118,212
    L 1118,194
    L 1100,200 L 1060,226 L 1040,240 L 1005,244 L 981,248
    L 964,256 L 952,272 L 935,278 L 913,282 L 895,290
    L 870,300 L 848,304 L 835,294 L 828,280 L 820,268
    L 810,255 L 795,248 L 780,238 L 778,228 L 775,218
    L 768,210 L 750,204 L 730,202 L 710,198 L 692,200
    L 672,188 L 656,172 L 642,160
    L 590,160 L 490,160 L 390,160 L 287,160 L 220,160
    L 155,160 L 140,172 Z
  " fill="#0f1f34" stroke="#1e3a5c" stroke-width="1"/>

  <!-- MEXICO (northern strip) -->
  <path d="
    M 270,490 L 309,490 L 370,514 L 405,514 L 447,504
    C 470,522 490,540 501,550 C 525,570 555,588 568,595 L 600,620
    L 610,650 L 580,660 L 520,650 L 440,640 L 360,625 L 290,600
    L 250,560 L 240,520 L 255,495 L 270,490 Z
  " fill="#0b1522" stroke="#1a3050" stroke-width="0.6"/>

  <!-- Great Lakes -->
  <ellipse cx="710" cy="196" rx="35" ry="10" fill="#0a1628" stroke="#1a3050" stroke-width="0.5" transform="rotate(-5,710,196)"/>
  <ellipse cx="778" cy="230" rx="8" ry="22" fill="#0a1628" stroke="#1a3050" stroke-width="0.5" transform="rotate(5,778,230)"/>
  <ellipse cx="832" cy="278" rx="10" ry="16" fill="#0a1628" stroke="#1a3050" stroke-width="0.5" transform="rotate(-12,832,278)"/>
  <ellipse cx="882" cy="292" rx="24" ry="6" fill="#0a1628" stroke="#1a3050" stroke-width="0.5" transform="rotate(-8,882,292)"/>
  <ellipse cx="935" cy="274" rx="15" ry="5" fill="#0a1628" stroke="#1a3050" stroke-width="0.5"/>

  <!-- ═══════ ROUTE LINES ═══════ -->
  <!-- Vancouver–Calgary -->
  <line x1="166" y1="154" x2="320" y2="119" stroke="#C8963E" stroke-width="1.2" stroke-dasharray="6,4" opacity="0.45" filter="url(#lineGlow)"/>
  <!-- Vancouver–Seattle -->
  <line x1="166" y1="154" x2="180" y2="188" stroke="#C8963E" stroke-width="1.2" stroke-dasharray="6,4" opacity="0.45" filter="url(#lineGlow)"/>
  <!-- Seattle–Minneapolis -->
  <path d="M 180,188 Q 430,140 672,240" stroke="#C8963E" stroke-width="1" stroke-dasharray="5,5" fill="none" opacity="0.35" filter="url(#lineGlow)"/>
  <!-- SF–LA -->
  <line x1="178" y1="385" x2="249" y2="459" stroke="#C8963E" stroke-width="1.2" stroke-dasharray="6,4" opacity="0.45" filter="url(#lineGlow)"/>
  <!-- LA–Phoenix -->
  <line x1="249" y1="459" x2="354" y2="471" stroke="#C8963E" stroke-width="1" stroke-dasharray="5,5" opacity="0.35" filter="url(#lineGlow)"/>
  <!-- LA–Dallas -->
  <path d="M 249,459 Q 430,500 612,485" stroke="#C8963E" stroke-width="1.2" stroke-dasharray="6,4" fill="none" opacity="0.4" filter="url(#lineGlow)"/>
  <!-- Phoenix–Dallas -->
  <path d="M 354,471 Q 480,510 612,485" stroke="#C8963E" stroke-width="1" stroke-dasharray="5,5" fill="none" opacity="0.3" filter="url(#lineGlow)"/>
  <!-- Dallas–Houston -->
  <line x1="612" y1="485" x2="636" y2="545" stroke="#C8963E" stroke-width="1.2" stroke-dasharray="6,4" opacity="0.45" filter="url(#lineGlow)"/>
  <!-- Dallas–Atlanta -->
  <path d="M 612,485 Q 718,440 822,465" stroke="#C8963E" stroke-width="1.3" stroke-dasharray="6,4" fill="none" opacity="0.45" filter="url(#lineGlow)"/>
  <!-- Houston–Miami -->
  <path d="M 636,545 Q 770,610 893,625" stroke="#C8963E" stroke-width="1" stroke-dasharray="5,5" fill="none" opacity="0.3" filter="url(#lineGlow)"/>
  <!-- Atlanta–Miami -->
  <path d="M 822,465 Q 870,540 893,625" stroke="#C8963E" stroke-width="1.2" stroke-dasharray="6,4" fill="none" opacity="0.4" filter="url(#lineGlow)"/>
  <!-- Chicago–Minneapolis -->
  <line x1="767" y1="302" x2="672" y2="240" stroke="#C8963E" stroke-width="1.2" stroke-dasharray="6,4" opacity="0.45" filter="url(#lineGlow)"/>
  <!-- Chicago–Detroit -->
  <line x1="767" y1="302" x2="845" y2="293" stroke="#C8963E" stroke-width="1.2" stroke-dasharray="6,4" opacity="0.45" filter="url(#lineGlow)"/>
  <!-- Chicago–New York -->
  <path d="M 767,302 Q 880,270 997,326" stroke="#C8963E" stroke-width="1.3" stroke-dasharray="6,4" fill="none" opacity="0.4" filter="url(#lineGlow)"/>
  <!-- Detroit–Toronto -->
  <line x1="845" y1="293" x2="907" y2="267" stroke="#C8963E" stroke-width="1.2" stroke-dasharray="6,4" opacity="0.45" filter="url(#lineGlow)"/>
  <!-- Toronto–Montreal -->
  <line x1="907" y1="267" x2="1005" y2="230" stroke="#C8963E" stroke-width="1.2" stroke-dasharray="6,4" opacity="0.45" filter="url(#lineGlow)"/>
  <!-- Montreal–Boston -->
  <line x1="1005" y1="230" x2="1047" y2="293" stroke="#C8963E" stroke-width="1.2" stroke-dasharray="6,4" opacity="0.45" filter="url(#lineGlow)"/>
  <!-- Boston–New York -->
  <line x1="1047" y1="293" x2="997" y2="326" stroke="#C8963E" stroke-width="1.3" stroke-dasharray="6,4" opacity="0.45" filter="url(#lineGlow)"/>
  <!-- NY–Philadelphia -->
  <line x1="997" y1="326" x2="978" y2="341" stroke="#C8963E" stroke-width="1" stroke-dasharray="5,5" opacity="0.4" filter="url(#lineGlow)"/>
  <!-- NY–Atlanta -->
  <path d="M 997,326 Q 920,380 822,465" stroke="#C8963E" stroke-width="1.2" stroke-dasharray="6,4" fill="none" opacity="0.35" filter="url(#lineGlow)"/>
  <!-- Denver–Chicago -->
  <path d="M 473,345 Q 620,290 767,302" stroke="#C8963E" stroke-width="1" stroke-dasharray="5,5" fill="none" opacity="0.35" filter="url(#lineGlow)"/>
  <!-- Denver–Dallas -->
  <path d="M 473,345 Q 540,420 612,485" stroke="#C8963E" stroke-width="1" stroke-dasharray="5,5" fill="none" opacity="0.35" filter="url(#lineGlow)"/>

  <!-- ═══════ CITY DOTS + LABELS ═══════ -->
  <!-- US Major Hubs (larger dots) -->
  <circle cx="997" cy="326" r="5" fill="#C8963E" filter="url(#glow)" opacity="0.95"/>
  <circle cx="997" cy="326" r="2" fill="#fff" opacity="0.8"/>
  <text x="1012" y="322" fill="#C8963E" font-family="Inter,Segoe UI,Arial,sans-serif" font-size="9.5" font-weight="700" letter-spacing="0.8" opacity="0.9">NEW YORK</text>

  <circle cx="249" cy="459" r="5" fill="#C8963E" filter="url(#glow)" opacity="0.95"/>
  <circle cx="249" cy="459" r="2" fill="#fff" opacity="0.8"/>
  <text x="200" y="475" fill="#C8963E" font-family="Inter,Segoe UI,Arial,sans-serif" font-size="9.5" font-weight="700" letter-spacing="0.8" opacity="0.9">LOS ANGELES</text>

  <circle cx="767" cy="302" r="5" fill="#C8963E" filter="url(#glow)" opacity="0.95"/>
  <circle cx="767" cy="302" r="2" fill="#fff" opacity="0.8"/>
  <text x="730" y="318" fill="#C8963E" font-family="Inter,Segoe UI,Arial,sans-serif" font-size="9.5" font-weight="700" letter-spacing="0.8" opacity="0.9">CHICAGO</text>

  <circle cx="612" cy="485" r="4.5" fill="#C8963E" filter="url(#glow)" opacity="0.95"/>
  <circle cx="612" cy="485" r="2" fill="#fff" opacity="0.8"/>
  <text x="612" y="478" text-anchor="middle" fill="#C8963E" font-family="Inter,Segoe UI,Arial,sans-serif" font-size="9" font-weight="700" letter-spacing="0.8" opacity="0.9">DALLAS</text>

  <circle cx="822" cy="465" r="4.5" fill="#C8963E" filter="url(#glow)" opacity="0.95"/>
  <circle cx="822" cy="465" r="2" fill="#fff" opacity="0.8"/>
  <text x="822" y="483" text-anchor="middle" fill="#C8963E" font-family="Inter,Segoe UI,Arial,sans-serif" font-size="9" font-weight="700" letter-spacing="0.8" opacity="0.9">ATLANTA</text>

  <circle cx="180" cy="188" r="4.5" fill="#C8963E" filter="url(#glow)" opacity="0.95"/>
  <circle cx="180" cy="188" r="2" fill="#fff" opacity="0.8"/>
  <text x="180" y="180" text-anchor="middle" fill="#C8963E" font-family="Inter,Segoe UI,Arial,sans-serif" font-size="9" font-weight="700" letter-spacing="0.8" opacity="0.9">SEATTLE</text>

  <!-- US Secondary Cities -->
  <circle cx="636" cy="545" r="3.5" fill="#C8963E" filter="url(#glow)" opacity="0.85"/>
  <text x="636" y="560" text-anchor="middle" fill="#C8963E" font-family="Inter,Segoe UI,Arial,sans-serif" font-size="8" font-weight="600" letter-spacing="0.5" opacity="0.75">HOUSTON</text>

  <circle cx="893" cy="625" r="3.5" fill="#C8963E" filter="url(#glow)" opacity="0.85"/>
  <text x="908" y="630" fill="#C8963E" font-family="Inter,Segoe UI,Arial,sans-serif" font-size="8" font-weight="600" letter-spacing="0.5" opacity="0.75">MIAMI</text>

  <circle cx="1047" cy="293" r="3.5" fill="#C8963E" filter="url(#glow)" opacity="0.85"/>
  <text x="1062" y="290" fill="#C8963E" font-family="Inter,Segoe UI,Arial,sans-serif" font-size="8" font-weight="600" letter-spacing="0.5" opacity="0.75">BOSTON</text>

  <circle cx="978" cy="341" r="3.5" fill="#C8963E" filter="url(#glow)" opacity="0.85"/>
  <text x="993" y="348" fill="#C8963E" font-family="Inter,Segoe UI,Arial,sans-serif" font-size="8" font-weight="600" letter-spacing="0.5" opacity="0.75">PHILADELPHIA</text>

  <circle cx="845" cy="293" r="3.5" fill="#C8963E" filter="url(#glow)" opacity="0.85"/>
  <text x="855" y="288" fill="#C8963E" font-family="Inter,Segoe UI,Arial,sans-serif" font-size="8" font-weight="600" letter-spacing="0.5" opacity="0.75">DETROIT</text>

  <circle cx="672" cy="240" r="3.5" fill="#C8963E" filter="url(#glow)" opacity="0.85"/>
  <text x="672" y="233" text-anchor="middle" fill="#C8963E" font-family="Inter,Segoe UI,Arial,sans-serif" font-size="8" font-weight="600" letter-spacing="0.5" opacity="0.75">MINNEAPOLIS</text>

  <circle cx="473" cy="345" r="3.5" fill="#C8963E" filter="url(#glow)" opacity="0.85"/>
  <text x="473" y="362" text-anchor="middle" fill="#C8963E" font-family="Inter,Segoe UI,Arial,sans-serif" font-size="8" font-weight="600" letter-spacing="0.5" opacity="0.75">DENVER</text>

  <circle cx="178" cy="385" r="3.5" fill="#C8963E" filter="url(#glow)" opacity="0.85"/>
  <text x="130" y="389" fill="#C8963E" font-family="Inter,Segoe UI,Arial,sans-serif" font-size="8" font-weight="600" letter-spacing="0.5" opacity="0.75">SAN FRANCISCO</text>

  <circle cx="354" cy="471" r="3.5" fill="#C8963E" filter="url(#glow)" opacity="0.85"/>
  <text x="354" y="488" text-anchor="middle" fill="#C8963E" font-family="Inter,Segoe UI,Arial,sans-serif" font-size="8" font-weight="600" letter-spacing="0.5" opacity="0.75">PHOENIX</text>

  <!-- Canadian Cities -->
  <circle cx="166" cy="154" r="4" fill="#C8963E" filter="url(#glow)" opacity="0.9"/>
  <circle cx="166" cy="154" r="1.5" fill="#fff" opacity="0.7"/>
  <text x="166" y="146" text-anchor="middle" fill="#C8963E" font-family="Inter,Segoe UI,Arial,sans-serif" font-size="8.5" font-weight="700" letter-spacing="0.5" opacity="0.85">VANCOUVER</text>

  <circle cx="320" cy="119" r="3.5" fill="#C8963E" filter="url(#glow)" opacity="0.9"/>
  <circle cx="320" cy="119" r="1.5" fill="#fff" opacity="0.7"/>
  <text x="320" y="111" text-anchor="middle" fill="#C8963E" font-family="Inter,Segoe UI,Arial,sans-serif" font-size="8.5" font-weight="700" letter-spacing="0.5" opacity="0.85">CALGARY</text>

  <circle cx="907" cy="267" r="4" fill="#C8963E" filter="url(#glow)" opacity="0.9"/>
  <circle cx="907" cy="267" r="1.5" fill="#fff" opacity="0.7"/>
  <text x="920" y="262" fill="#C8963E" font-family="Inter,Segoe UI,Arial,sans-serif" font-size="8.5" font-weight="700" letter-spacing="0.5" opacity="0.85">TORONTO</text>

  <circle cx="1005" cy="230" r="3.5" fill="#C8963E" filter="url(#glow)" opacity="0.9"/>
  <circle cx="1005" cy="230" r="1.5" fill="#fff" opacity="0.7"/>
  <text x="1020" y="225" fill="#C8963E" font-family="Inter,Segoe UI,Arial,sans-serif" font-size="8.5" font-weight="700" letter-spacing="0.5" opacity="0.85">MONTREAL</text>
</svg>