<svg xmlns="http://www.w3.org/2000/svg" viewBox="0 0 1200 800" fill="none">
  <defs>
    <!-- Glow filter for gold nodes -->
    <filter id="glow" x="-50%" y="-50%" width="200%" height="200%">
      <feGaussianBlur stdDeviation="4" result="blur"/>
      <feMerge>
        <feMergeNode in="blur"/>
        <feMergeNode in="SourceGraphic"/>
      </feMerge>
    </filter>

    <!-- Stronger glow for HQ -->
    <filter id="hqGlow" x="-100%" y="-100%" width="300%" height="300%">
      <feGaussianBlur stdDeviation="8" result="blur"/>
      <feMerge>
        <feMergeNode in="blur"/>
        <feMergeNode in="blur"/>
        <feMergeNode in="SourceGraphic"/>
      </feMerge>
    </filter>

    <!-- Subtle line glow -->
    <filter id="lineGlow" x="-20%" y="-20%" width="140%" height="140%">
      <feGaussianBlur stdDeviation="2" result="blur"/>
      <feMerge>
        <feMergeNode in="blur"/>
        <feMergeNode in="SourceGraphic"/>
      </feMerge>
    </filter>

    <!-- Midwest radial glow around Kalamazoo -->
    <radialGradient id="midwestGlow" cx="615" cy="310" r="180" gradientUnits="userSpaceOnUse">
      <stop offset="0%" stop-color="#D4A843" stop-opacity="0.12"/>
      <stop offset="50%" stop-color="#D4A843" stop-opacity="0.04"/>
      <stop offset="100%" stop-color="#D4A843" stop-opacity="0"/>
    </radialGradient>

    <!-- Route line gradient -->
    <linearGradient id="routeGrad" x1="0%" y1="0%" x2="100%" y2="0%">
      <stop offset="0%" stop-color="#D4A843" stop-opacity="0.8"/>
      <stop offset="50%" stop-color="#D4A843" stop-opacity="0.4"/>
      <stop offset="100%" stop-color="#D4A843" stop-opacity="0.8"/>
    </linearGradient>

    <!-- Great Lakes subtle fill -->
    <radialGradient id="lakeGrad">
      <stop offset="0%" stop-color="#1a3a5c" stop-opacity="0.35"/>
      <stop offset="100%" stop-color="#0D1B2A" stop-opacity="0.1"/>
    </radialGradient>

    <!-- Grid pattern -->
    <pattern id="grid" width="60" height="60" patternUnits="userSpaceOnUse">
      <path d="M 60 0 L 0 0 0 60" fill="none" stroke="#1a2a40" stroke-width="0.3"/>
    </pattern>
  </defs>

  <!-- Background -->
  <rect width="1200" height="800" fill="#0D1B2A"/>

  <!-- Subtle grid -->
  <rect width="1200" height="800" fill="url(#grid)" opacity="0.5"/>

  <!-- Midwest radial glow -->
  <circle cx="615" cy="310" r="180" fill="url(#midwestGlow)"/>

  <!-- ===== CANADA OUTLINE (simplified) ===== -->
  <path d="
    M 100,120 L 140,100 180,95 220,90 260,105 300,95 340,88 380,92
    L 420,85 460,80 500,78 540,82 580,75 620,78 660,82 700,80
    L 740,85 780,90 820,95 860,105 900,110 940,120 960,130
    L 970,145 975,160 980,175 970,190 955,200
    L 940,210 920,215 900,220 880,218 860,222 840,225
    L 820,220 800,225 780,230 760,228 740,232 720,228
    L 700,235 680,240 670,248 660,255 650,260
    L 640,258 620,262 600,258 580,265 560,270
    L 540,268 520,272 500,275 480,270 460,268
    L 440,272 420,275 400,278 380,282 360,278
    L 340,275 320,280 300,285 280,282 260,278
    L 240,282 220,285 200,290 180,285 160,278
    L 140,275 120,270 105,260 100,245 95,230 92,215
    L 90,200 88,180 90,160 95,140 100,120 Z
  " fill="#0f2035" stroke="#1a3a5c" stroke-width="0.8" opacity="0.9"/>

  <!-- ===== USA OUTLINE (simplified, no Mexico) ===== -->
  <path d="
    M 92,215 L 95,230 100,245 105,260 120,270 140,275 160,278 180,285
    L 200,290 220,285 240,282 260,278 280,282 300,285 320,280
    L 340,275 360,278 380,282 400,278 420,275 440,272 460,268
    L 480,270 500,275 520,272 540,268 560,270 580,265
    L 600,258 620,262 640,258 650,260 660,255 670,248 680,240
    L 700,235 720,228 740,232 760,228 780,230 800,225
    L 820,220 840,225 860,222 880,218 900,220 920,215
    L 940,210 955,200 970,190 980,205 985,225 990,250
    L 988,270 985,290 990,310 995,330 998,350
    L 995,370 988,390 980,400 970,408 960,415
    L 950,425 940,440 935,458 940,475 945,490
    L 935,498 920,505 910,515 900,520 890,530
    L 878,540 870,550 865,560 870,575 875,585
    L 870,595 860,600 845,605 830,600 818,595
    L 810,605 800,615 790,620 780,618 770,610
    L 760,615 752,625 748,638 755,648 760,658
    L 750,662 738,658 725,650 715,645 705,650
    L 698,660 695,670 700,680 695,688 685,690
    L 670,685 655,680 640,682 625,688 615,695
    L 600,690 580,685 560,688 540,692 520,690
    L 500,695 480,698 460,695 440,690 420,688
    L 400,692 385,698 370,695 355,690 340,688
    L 325,695 315,700 305,698 295,690 285,685
    L 270,690 255,695 240,698 225,695 210,690
    L 195,685 180,682 165,678 150,675 135,680
    L 120,685 108,690 100,695 95,700 90,705
    L 85,698 80,688 78,672 80,655 85,640
    L 82,620 80,600 78,580 80,560 85,540
    L 88,520 85,500 82,480 80,460 78,440
    L 80,420 82,400 85,380 88,360 85,340
    L 82,320 80,300 82,280 85,260 88,240
    L 90,225 92,215 Z
  " fill="#0f2035" stroke="#1a3a5c" stroke-width="0.8" opacity="0.9"/>

  <!-- ===== GREAT LAKES ===== -->
  <!-- Lake Superior -->
  <ellipse cx="510" cy="235" rx="65" ry="22" fill="url(#lakeGrad)" stroke="#1a3a5c" stroke-width="0.4"/>
  <!-- Lake Michigan -->
  <ellipse cx="590" cy="310" rx="18" ry="50" fill="url(#lakeGrad)" stroke="#1a3a5c" stroke-width="0.4" transform="rotate(-8,590,310)"/>
  <!-- Lake Huron -->
  <ellipse cx="650" cy="260" rx="22" ry="40" fill="url(#lakeGrad)" stroke="#1a3a5c" stroke-width="0.4" transform="rotate(15,650,260)"/>
  <!-- Lake Erie -->
  <ellipse cx="720" cy="300" rx="42" ry="12" fill="url(#lakeGrad)" stroke="#1a3a5c" stroke-width="0.4" transform="rotate(-8,720,300)"/>
  <!-- Lake Ontario -->
  <ellipse cx="790" cy="265" rx="28" ry="10" fill="url(#lakeGrad)" stroke="#1a3a5c" stroke-width="0.4"/>

  <!-- ===== ROUTE LINES ===== -->
  <!-- Primary routes FROM Kalamazoo (HQ: 640, 320) -->

  <!-- Kalamazoo -> Chicago (560, 348) -->
  <line x1="615" y1="340" x2="560" y2="348" stroke="#D4A843" stroke-width="1.5" stroke-dasharray="6,4" opacity="0.5" filter="url(#lineGlow)">
    <animate attributeName="stroke-dashoffset" from="0" to="-20" dur="2s" repeatCount="indefinite"/>
  </line>

  <!-- Kalamazoo -> Detroit (685, 310) -->
  <line x1="615" y1="340" x2="685" y2="310" stroke="#D4A843" stroke-width="1.5" stroke-dasharray="6,4" opacity="0.5" filter="url(#lineGlow)">
    <animate attributeName="stroke-dashoffset" from="0" to="-20" dur="1.8s" repeatCount="indefinite"/>
  </line>

  <!-- Kalamazoo -> Grand Rapids (615, 300) -->
  <line x1="615" y1="340" x2="615" y2="300" stroke="#D4A843" stroke-width="1.5" stroke-dasharray="6,4" opacity="0.5" filter="url(#lineGlow)">
    <animate attributeName="stroke-dashoffset" from="0" to="-20" dur="1.5s" repeatCount="indefinite"/>
  </line>

  <!-- Kalamazoo -> Indianapolis (605, 385) -->
  <line x1="615" y1="340" x2="605" y2="385" stroke="#D4A843" stroke-width="1.5" stroke-dasharray="6,4" opacity="0.5" filter="url(#lineGlow)">
    <animate attributeName="stroke-dashoffset" from="0" to="-20" dur="2.2s" repeatCount="indefinite"/>
  </line>

  <!-- Kalamazoo -> Columbus (700, 365) -->
  <line x1="615" y1="340" x2="700" y2="365" stroke="#D4A843" stroke-width="1.5" stroke-dasharray="6,4" opacity="0.5" filter="url(#lineGlow)">
    <animate attributeName="stroke-dashoffset" from="0" to="-20" dur="2.1s" repeatCount="indefinite"/>
  </line>

  <!-- Kalamazoo -> Milwaukee (540, 320) -->
  <line x1="615" y1="340" x2="540" y2="320" stroke="#D4A843" stroke-width="1.2" stroke-dasharray="5,5" opacity="0.35" filter="url(#lineGlow)">
    <animate attributeName="stroke-dashoffset" from="0" to="-20" dur="2.5s" repeatCount="indefinite"/>
  </line>

  <!-- Secondary routes from hubs -->

  <!-- Chicago -> Minneapolis (430, 280) -->
  <line x1="560" y1="348" x2="430" y2="280" stroke="#D4A843" stroke-width="1" stroke-dasharray="5,5" opacity="0.3" filter="url(#lineGlow)">
    <animate attributeName="stroke-dashoffset" from="0" to="-20" dur="3s" repeatCount="indefinite"/>
  </line>

  <!-- Chicago -> St. Louis (520, 430) -->
  <line x1="560" y1="348" x2="520" y2="430" stroke="#D4A843" stroke-width="1" stroke-dasharray="5,5" opacity="0.3" filter="url(#lineGlow)">
    <animate attributeName="stroke-dashoffset" from="0" to="-20" dur="2.8s" repeatCount="indefinite"/>
  </line>

  <!-- Chicago -> Dallas (400, 560) -->
  <line x1="560" y1="348" x2="400" y2="560" stroke="#D4A843" stroke-width="0.8" stroke-dasharray="4,6" opacity="0.25" filter="url(#lineGlow)">
    <animate attributeName="stroke-dashoffset" from="0" to="-20" dur="4s" repeatCount="indefinite"/>
  </line>

  <!-- Indianapolis -> Nashville (625, 448) -->
  <line x1="605" y1="385" x2="625" y2="448" stroke="#D4A843" stroke-width="1" stroke-dasharray="5,5" opacity="0.3" filter="url(#lineGlow)">
    <animate attributeName="stroke-dashoffset" from="0" to="-20" dur="2.6s" repeatCount="indefinite"/>
  </line>

  <!-- Nashville -> Memphis (530, 478) -->
  <line x1="625" y1="448" x2="530" y2="478" stroke="#D4A843" stroke-width="0.8" stroke-dasharray="4,6" opacity="0.25" filter="url(#lineGlow)">
    <animate attributeName="stroke-dashoffset" from="0" to="-20" dur="3.2s" repeatCount="indefinite"/>
  </line>

  <!-- Nashville -> Atlanta (700, 500) -->
  <line x1="625" y1="448" x2="700" y2="500" stroke="#D4A843" stroke-width="1" stroke-dasharray="5,5" opacity="0.3" filter="url(#lineGlow)">
    <animate attributeName="stroke-dashoffset" from="0" to="-20" dur="3s" repeatCount="indefinite"/>
  </line>

  <!-- Columbus -> New York (900, 310) -->
  <line x1="700" y1="365" x2="900" y2="310" stroke="#D4A843" stroke-width="0.8" stroke-dasharray="4,6" opacity="0.25" filter="url(#lineGlow)">
    <animate attributeName="stroke-dashoffset" from="0" to="-20" dur="3.5s" repeatCount="indefinite"/>
  </line>

  <!-- Minneapolis -> Seattle (165, 225) -->
  <line x1="430" y1="280" x2="165" y2="225" stroke="#D4A843" stroke-width="0.8" stroke-dasharray="4,6" opacity="0.2" filter="url(#lineGlow)">
    <animate attributeName="stroke-dashoffset" from="0" to="-20" dur="5s" repeatCount="indefinite"/>
  </line>

  <!-- Minneapolis -> Denver (310, 395) -->
  <line x1="430" y1="280" x2="310" y2="395" stroke="#D4A843" stroke-width="0.8" stroke-dasharray="4,6" opacity="0.25" filter="url(#lineGlow)">
    <animate attributeName="stroke-dashoffset" from="0" to="-20" dur="3.8s" repeatCount="indefinite"/>
  </line>

  <!-- Denver -> Los Angeles (155, 495) -->
  <line x1="310" y1="395" x2="155" y2="495" stroke="#D4A843" stroke-width="0.8" stroke-dasharray="4,6" opacity="0.2" filter="url(#lineGlow)">
    <animate attributeName="stroke-dashoffset" from="0" to="-20" dur="4.5s" repeatCount="indefinite"/>
  </line>

  <!-- Dallas -> Memphis -->
  <line x1="400" y1="560" x2="530" y2="478" stroke="#D4A843" stroke-width="0.8" stroke-dasharray="4,6" opacity="0.2" filter="url(#lineGlow)">
    <animate attributeName="stroke-dashoffset" from="0" to="-20" dur="3.4s" repeatCount="indefinite"/>
  </line>

  <!-- St. Louis -> Dallas -->
  <line x1="520" y1="430" x2="400" y2="560" stroke="#D4A843" stroke-width="0.8" stroke-dasharray="4,6" opacity="0.22" filter="url(#lineGlow)">
    <animate attributeName="stroke-dashoffset" from="0" to="-20" dur="3.6s" repeatCount="indefinite"/>
  </line>

  <!-- Canadian connections -->

  <!-- Detroit -> Toronto (760, 248) -->
  <line x1="685" y1="310" x2="760" y2="248" stroke="#D4A843" stroke-width="1" stroke-dasharray="5,5" opacity="0.3" filter="url(#lineGlow)">
    <animate attributeName="stroke-dashoffset" from="0" to="-20" dur="2.8s" repeatCount="indefinite"/>
  </line>

  <!-- Toronto -> Montreal (870, 215) -->
  <line x1="760" y1="248" x2="870" y2="215" stroke="#D4A843" stroke-width="0.8" stroke-dasharray="4,6" opacity="0.25" filter="url(#lineGlow)">
    <animate attributeName="stroke-dashoffset" from="0" to="-20" dur="3s" repeatCount="indefinite"/>
  </line>

  <!-- New York -> Montreal -->
  <line x1="900" y1="310" x2="870" y2="215" stroke="#D4A843" stroke-width="0.8" stroke-dasharray="4,6" opacity="0.22" filter="url(#lineGlow)">
    <animate attributeName="stroke-dashoffset" from="0" to="-20" dur="3.2s" repeatCount="indefinite"/>
  </line>

  <!-- Seattle -> Vancouver (155, 175) -->
  <line x1="165" y1="225" x2="155" y2="175" stroke="#D4A843" stroke-width="0.8" stroke-dasharray="4,6" opacity="0.25" filter="url(#lineGlow)">
    <animate attributeName="stroke-dashoffset" from="0" to="-20" dur="2.4s" repeatCount="indefinite"/>
  </line>

  <!-- Vancouver -> Calgary (220, 145) -->
  <line x1="155" y1="175" x2="220" y2="145" stroke="#D4A843" stroke-width="0.8" stroke-dasharray="4,6" opacity="0.22" filter="url(#lineGlow)">
    <animate attributeName="stroke-dashoffset" from="0" to="-20" dur="2.6s" repeatCount="indefinite"/>
  </line>

  <!-- Milwaukee -> Minneapolis -->
  <line x1="540" y1="320" x2="430" y2="280" stroke="#D4A843" stroke-width="0.8" stroke-dasharray="4,6" opacity="0.22" filter="url(#lineGlow)">
    <animate attributeName="stroke-dashoffset" from="0" to="-20" dur="2.7s" repeatCount="indefinite"/>
  </line>

  <!-- Atlanta -> Dallas -->
  <line x1="700" y1="500" x2="400" y2="560" stroke="#D4A843" stroke-width="0.8" stroke-dasharray="4,6" opacity="0.2" filter="url(#lineGlow)">
    <animate attributeName="stroke-dashoffset" from="0" to="-20" dur="4.2s" repeatCount="indefinite"/>
  </line>

  <!-- ===== CITY DOTS ===== -->

  <!-- Distant cities (r=2.5) -->
  <!-- Seattle -->
  <circle cx="165" cy="225" r="2.5" fill="#D4A843" opacity="0.8">
    <animate attributeName="opacity" values="0.6;1;0.6" dur="4s" repeatCount="indefinite"/>
  </circle>
  <text x="165" y="218" text-anchor="middle" fill="#D4A843" font-family="Arial,sans-serif" font-size="8" opacity="0.6">SEATTLE</text>

  <!-- Los Angeles -->
  <circle cx="155" cy="495" r="2.5" fill="#D4A843" opacity="0.8">
    <animate attributeName="opacity" values="0.6;1;0.6" dur="4.5s" repeatCount="indefinite"/>
  </circle>
  <text x="155" y="510" text-anchor="middle" fill="#D4A843" font-family="Arial,sans-serif" font-size="8" opacity="0.6">LOS ANGELES</text>

  <!-- Denver -->
  <circle cx="310" cy="395" r="2.5" fill="#D4A843" opacity="0.8">
    <animate attributeName="opacity" values="0.6;1;0.6" dur="3.8s" repeatCount="indefinite"/>
  </circle>
  <text x="310" y="410" text-anchor="middle" fill="#D4A843" font-family="Arial,sans-serif" font-size="8" opacity="0.6">DENVER</text>

  <!-- Dallas -->
  <circle cx="400" cy="560" r="3" fill="#D4A843" opacity="0.8">
    <animate attributeName="opacity" values="0.6;1;0.6" dur="3.5s" repeatCount="indefinite"/>
  </circle>
  <text x="400" y="575" text-anchor="middle" fill="#D4A843" font-family="Arial,sans-serif" font-size="8" opacity="0.6">DALLAS</text>

  <!-- Memphis -->
  <circle cx="530" cy="478" r="2.5" fill="#D4A843" opacity="0.8">
    <animate attributeName="opacity" values="0.6;1;0.6" dur="3.6s" repeatCount="indefinite"/>
  </circle>
  <text x="530" y="493" text-anchor="middle" fill="#D4A843" font-family="Arial,sans-serif" font-size="8" opacity="0.6">MEMPHIS</text>

  <!-- Atlanta -->
  <circle cx="700" cy="500" r="3" fill="#D4A843" opacity="0.8">
    <animate attributeName="opacity" values="0.6;1;0.6" dur="3.3s" repeatCount="indefinite"/>
  </circle>
  <text x="700" y="515" text-anchor="middle" fill="#D4A843" font-family="Arial,sans-serif" font-size="8" opacity="0.6">ATLANTA</text>

  <!-- New York -->
  <circle cx="900" cy="310" r="3" fill="#D4A843" opacity="0.8">
    <animate attributeName="opacity" values="0.6;1;0.6" dur="3.2s" repeatCount="indefinite"/>
  </circle>
  <text x="916" y="314" text-anchor="start" fill="#D4A843" font-family="Arial,sans-serif" font-size="8" opacity="0.6">NEW YORK</text>

  <!-- St. Louis -->
  <circle cx="520" cy="430" r="2.5" fill="#D4A843" opacity="0.8">
    <animate attributeName="opacity" values="0.6;1;0.6" dur="3.4s" repeatCount="indefinite"/>
  </circle>
  <text x="520" y="445" text-anchor="middle" fill="#D4A843" font-family="Arial,sans-serif" font-size="8" opacity="0.6">ST. LOUIS</text>

  <!-- Nashville -->
  <circle cx="625" cy="448" r="3" fill="#D4A843" opacity="0.8">
    <animate attributeName="opacity" values="0.6;1;0.6" dur="3.1s" repeatCount="indefinite"/>
  </circle>
  <text x="641" y="452" text-anchor="start" fill="#D4A843" font-family="Arial,sans-serif" font-size="8" opacity="0.6">NASHVILLE</text>

  <!-- Canadian cities (r=2.5) -->
  <!-- Vancouver -->
  <circle cx="155" cy="175" r="2.5" fill="#D4A843" opacity="0.7">
    <animate attributeName="opacity" values="0.5;0.9;0.5" dur="4.2s" repeatCount="indefinite"/>
  </circle>
  <text x="155" y="168" text-anchor="middle" fill="#D4A843" font-family="Arial,sans-serif" font-size="7.5" opacity="0.5">VANCOUVER</text>

  <!-- Calgary -->
  <circle cx="220" cy="145" r="2.5" fill="#D4A843" opacity="0.7">
    <animate attributeName="opacity" values="0.5;0.9;0.5" dur="4.4s" repeatCount="indefinite"/>
  </circle>
  <text x="220" y="138" text-anchor="middle" fill="#D4A843" font-family="Arial,sans-serif" font-size="7.5" opacity="0.5">CALGARY</text>

  <!-- Montreal -->
  <circle cx="870" cy="215" r="2.5" fill="#D4A843" opacity="0.7">
    <animate attributeName="opacity" values="0.5;0.9;0.5" dur="3.9s" repeatCount="indefinite"/>
  </circle>
  <text x="886" y="210" text-anchor="start" fill="#D4A843" font-family="Arial,sans-serif" font-size="7.5" opacity="0.5">MONTREAL</text>

  <!-- Regional hubs (r=4-5) -->
  <!-- Minneapolis -->
  <circle cx="430" cy="280" r="4" fill="#D4A843" filter="url(#glow)" opacity="0.85">
    <animate attributeName="opacity" values="0.7;1;0.7" dur="3s" repeatCount="indefinite"/>
  </circle>
  <text x="430" y="273" text-anchor="middle" fill="#D4A843" font-family="Arial,sans-serif" font-size="8.5" opacity="0.7">MINNEAPOLIS</text>

  <!-- Milwaukee -->
  <circle cx="540" cy="320" r="3.5" fill="#D4A843" filter="url(#glow)" opacity="0.85">
    <animate attributeName="opacity" values="0.7;1;0.7" dur="2.8s" repeatCount="indefinite"/>
  </circle>
  <text x="524" y="332" text-anchor="end" fill="#D4A843" font-family="Arial,sans-serif" font-size="8" opacity="0.65">MILWAUKEE</text>

  <!-- Chicago -->
  <circle cx="560" cy="348" r="5" fill="#D4A843" filter="url(#glow)" opacity="0.9">
    <animate attributeName="opacity" values="0.75;1;0.75" dur="2.5s" repeatCount="indefinite"/>
  </circle>
  <text x="545" y="362" text-anchor="end" fill="#D4A843" font-family="Arial,sans-serif" font-size="9" opacity="0.75">CHICAGO</text>

  <!-- Grand Rapids -->
  <circle cx="615" cy="300" r="3.5" fill="#D4A843" filter="url(#glow)" opacity="0.85">
    <animate attributeName="opacity" values="0.7;1;0.7" dur="2.2s" repeatCount="indefinite"/>
  </circle>
  <text x="615" y="293" text-anchor="middle" fill="#D4A843" font-family="Arial,sans-serif" font-size="8" opacity="0.65">GRAND RAPIDS</text>

  <!-- Detroit -->
  <circle cx="685" cy="310" r="5" fill="#D4A843" filter="url(#glow)" opacity="0.9">
    <animate attributeName="opacity" values="0.75;1;0.75" dur="2.3s" repeatCount="indefinite"/>
  </circle>
  <text x="700" y="306" text-anchor="start" fill="#D4A843" font-family="Arial,sans-serif" font-size="9" opacity="0.75">DETROIT</text>

  <!-- Indianapolis -->
  <circle cx="605" cy="385" r="4.5" fill="#D4A843" filter="url(#glow)" opacity="0.85">
    <animate attributeName="opacity" values="0.7;1;0.7" dur="2.6s" repeatCount="indefinite"/>
  </circle>
  <text x="605" y="399" text-anchor="middle" fill="#D4A843" font-family="Arial,sans-serif" font-size="8.5" opacity="0.7">INDIANAPOLIS</text>

  <!-- Columbus -->
  <circle cx="700" cy="365" r="4" fill="#D4A843" filter="url(#glow)" opacity="0.85">
    <animate attributeName="opacity" values="0.7;1;0.7" dur="2.7s" repeatCount="indefinite"/>
  </circle>
  <text x="716" y="369" text-anchor="start" fill="#D4A843" font-family="Arial,sans-serif" font-size="8.5" opacity="0.7">COLUMBUS</text>

  <!-- Toronto -->
  <circle cx="760" cy="248" r="4" fill="#D4A843" filter="url(#glow)" opacity="0.85">
    <animate attributeName="opacity" values="0.7;1;0.7" dur="2.9s" repeatCount="indefinite"/>
  </circle>
  <text x="776" y="244" text-anchor="start" fill="#D4A843" font-family="Arial,sans-serif" font-size="8.5" opacity="0.65">TORONTO</text>

  <!-- ===== KALAMAZOO HQ ===== -->
  <!-- Outer pulsing ring -->
  <circle cx="615" cy="340" r="16" fill="none" stroke="#D4A843" stroke-width="0.8" opacity="0.3">
    <animate attributeName="r" values="16;28;16" dur="3s" repeatCount="indefinite"/>
    <animate attributeName="opacity" values="0.3;0;0.3" dur="3s" repeatCount="indefinite"/>
  </circle>
  <!-- Second pulsing ring (staggered) -->
  <circle cx="615" cy="340" r="22" fill="none" stroke="#D4A843" stroke-width="0.5" opacity="0.2">
    <animate attributeName="r" values="22;34;22" dur="3s" begin="1.5s" repeatCount="indefinite"/>
    <animate attributeName="opacity" values="0.2;0;0.2" dur="3s" begin="1.5s" repeatCount="indefinite"/>
  </circle>
  <!-- HQ glow base -->
  <circle cx="615" cy="340" r="12" fill="#D4A843" opacity="0.15" filter="url(#hqGlow)"/>
  <!-- HQ main dot -->
  <circle cx="615" cy="340" r="8" fill="#D4A843" filter="url(#hqGlow)" opacity="0.95">
    <animate attributeName="opacity" values="0.85;1;0.85" dur="2s" repeatCount="indefinite"/>
  </circle>
  <!-- HQ inner bright dot -->
  <circle cx="615" cy="340" r="3" fill="#fff" opacity="0.6"/>

  <!-- HQ Label -->
  <text x="615" y="366" text-anchor="middle" fill="#D4A843" font-family="Arial,sans-serif" font-size="11" font-weight="bold" letter-spacing="2" opacity="0.95">KALAMAZOO</text>

  <!-- HQ Badge -->
  <rect x="597" y="370" width="36" height="16" rx="3" fill="#D4A843" opacity="0.9"/>
  <text x="615" y="382" text-anchor="middle" fill="#0D1B2A" font-family="Arial,sans-serif" font-size="9" font-weight="bold">HQ</text>
</svg>