<?xml version='1.0' encoding='utf-8'?>
<svg xmlns="http://www.w3.org/2000/svg" width="800" height="1000" viewBox="0 0 800 1000"><g id="icon" transform="translate(0,0)"><circle cx="400" cy="320" r="145" fill="none" stroke="#0F1A22" stroke-width="26" stroke-linecap="round" /><polygon points="400,137 378,181 422,181" fill="#0F1A22" /><polygon points="400,503 378,459 422,459" fill="#0F1A22" /><polygon points="217,320 261,298 261,342" fill="#0F1A22" /><polygon points="583,320 539,298 539,342" fill="#0F1A22" /><path d="M 380 415 C 325 350, 350 300, 410 275 C 485 245, 510 280, 535 305 C 575 350, 510 390, 445 415 C 390 435, 385 475, 415 505 " fill="none" stroke="#C9A24D" stroke-width="86" stroke-linecap="round" stroke-linejoin="round" clip-path="url(#clipLeft)" /><path d="M 380 415 C 325 350, 350 300, 410 275 C 485 245, 510 280, 535 305 C 575 350, 510 390, 445 415 C 390 435, 385 475, 415 505 " fill="none" stroke="#0F1A22" stroke-width="86" stroke-linecap="round" stroke-linejoin="round" clip-path="url(#clipRight)" /><path d="M 380 415 C 325 350, 350 300, 410 275 C 485 245, 510 280, 535 305 C 575 350, 510 390, 445 415 C 390 435, 385 475, 415 505 " fill="none" stroke="#FFFFFF" stroke-width="24" stroke-linecap="round" stroke-linejoin="round" opacity="0.95" /></g><defs><clipPath id="clipLeft"><rect x="0" y="0" width="400" height="1000" /></clipPath><clipPath id="clipRight"><rect x="400" y="0" width="400" height="1000" /></clipPath></defs><g id="wordmark"><text x="400" y="720" text-anchor="middle" font-family="Montserrat, Arial, sans-serif" font-weight="700" font-size="88" letter-spacing="2" fill="#0F1A22">SILK ROUTE</text><text x="400" y="800" text-anchor="middle" font-family="Montserrat, Arial, sans-serif" font-weight="500" font-size="44" letter-spacing="6" fill="#0F1A22">LOGISTICS INC.</text></g></svg>